<?xml version="1.0" encoding="UTF-8"?>
<svg width="214px" height="177px" viewBox="0 0 214 177" version="1.1" xmlns="http://www.w3.org/2000/svg" xmlns:xlink="http://www.w3.org/1999/xlink">
    <title>Group 12</title>
    <g id="Page-1" stroke="none" stroke-width="1" fill="none" fill-rule="evenodd">
        <g id="Group-12" transform="translate(0.000000, -0.000033)" fill="#FFFFFF">
            <path d="M96.8021,66.5339334 L98.7031,72.3849334 L88.7501,72.3849334 L96.8021,66.5339334 Z M102.8221,59.3289334 L97.9061,62.8999334 L94.8691,53.5509334 L102.8221,59.3289334 Z M111.6581,62.8269334 L106.7811,59.2829334 L114.6721,53.5509334 L111.6581,62.8269334 Z M110.9621,72.3849334 L112.8391,66.6069334 L120.7911,72.3849334 L110.9621,72.3849334 Z M104.7701,84.0249334 L101.6951,74.5579334 L107.8461,74.5579334 L104.7701,84.0249334 Z M98.4491,64.9769334 L104.6301,60.4869334 C104.7581,60.5059334 104.8861,60.5029334 105.0131,60.4709334 L111.0751,64.8759334 C111.0841,65.0059334 111.1211,65.1289334 111.1781,65.2449334 L108.8181,72.5109334 C108.7871,72.5269334 108.7541,72.5389334 108.7251,72.5579334 L100.8621,72.5579334 L98.4331,65.0799334 C98.4421,65.0469334 98.4431,65.0119334 98.4491,64.9769334 L98.4491,64.9769334 Z M85.6721,74.3849334 L99.5351,74.3849334 L103.8191,87.5699334 C103.9531,87.9819334 104.3371,88.2619334 104.7701,88.2619334 C105.2031,88.2619334 105.5881,87.9819334 105.7211,87.5699334 L109.9901,74.4319334 C110.0211,74.4159334 110.0541,74.4039334 110.0831,74.3849334 L123.8691,74.3849334 C124.3021,74.3849334 124.6871,74.1049334 124.8211,73.6929334 C124.9541,73.2809334 124.8081,72.8299334 124.4571,72.5759334 L113.4221,64.5579334 C113.4131,64.4289334 113.3761,64.3049334 113.3191,64.1889334 L117.5251,51.2409334 C117.6591,50.8289334 117.5121,50.3779334 117.1621,50.1239334 C116.8111,49.8679334 116.3371,49.8679334 115.9861,50.1239334 L104.9731,58.1249334 C104.8441,58.1059334 104.7161,58.1089334 104.5901,58.1399334 L93.5541,50.1239334 C93.2051,49.8689334 92.7301,49.8689334 92.3791,50.1239334 C92.0281,50.3779334 91.8821,50.8299334 92.0151,51.2409334 L96.2761,64.3539334 C96.2661,64.3879334 96.2651,64.4229334 96.2601,64.4569334 L85.0841,72.5759334 C84.7331,72.8299334 84.5871,73.2809334 84.7201,73.6929334 C84.8541,74.1049334 85.2391,74.3849334 85.6721,74.3849334 L85.6721,74.3849334 Z" id="Fill-1"></path>
            <path d="M154.0238,81.1149334 C142.1448,82.9029334 133.0998,92.5009334 132.0268,104.454933 L134.0198,104.632933 C135.0088,93.5999334 143.3578,84.7429334 154.3218,83.0939334 C165.2828,81.4429334 175.8718,87.4509334 180.0638,97.7039334 L181.9148,96.9459334 C177.3728,85.8379334 165.8998,79.3319334 154.0238,81.1149334" id="Fill-3"></path>
            <path d="M59.5536,81.0954334 C59.0136,81.0144334 58.4766,80.9694334 57.9396,80.9224334 C57.8496,80.9134334 57.7596,80.9004334 57.6686,80.8934334 C57.1976,80.8564334 56.7296,80.8434334 56.2606,80.8324334 C55.9416,80.8244334 55.6216,80.8084334 55.3036,80.8114334 C55.0626,80.8144334 54.8246,80.8314334 54.5846,80.8414334 C54.0436,80.8614334 53.5056,80.8874334 52.9706,80.9414334 C52.9516,80.9434334 52.9316,80.9464334 52.9116,80.9484334 C43.7356,81.8764334 35.5556,87.6414334 31.7476,96.4494334 L31.8596,96.4974334 C31.7976,96.6424334 31.7226,96.7804334 31.6626,96.9264334 L33.5136,97.6844334 C36.9166,89.3634334 44.5296,83.8384334 53.1366,82.9344334 C53.1516,82.9334334 53.1646,82.9304334 53.1786,82.9294334 C53.6686,82.8784334 54.1646,82.8584334 54.6606,82.8374334 C54.8856,82.8294334 55.1076,82.8124334 55.3336,82.8104334 C55.6196,82.8064334 55.9086,82.8234334 56.1966,82.8294334 C56.6356,82.8424334 57.0736,82.8494334 57.5146,82.8864334 C57.5896,82.8924334 57.6646,82.9044334 57.7396,82.9104334 C58.3626,82.9674334 58.9876,83.0424334 59.6136,83.1504334 C70.5416,85.0204334 78.7116,94.0424334 79.4796,105.093433 L81.4746,104.954433 C81.4626,104.783433 81.4326,104.617433 81.4176,104.447433 L81.5506,104.435433 C80.4776,92.4814334 71.4326,82.8834334 59.5536,81.0954334" id="Fill-5"></path>
            <path d="M106.789,174.446033 C49.008,174.446033 2,144.095033 2,106.790033 C2,103.685033 2.33,100.563033 2.978,97.5160334 L23.462,3.87703341 L47.87,49.8560334 C48.113,50.3140334 48.667,50.5110334 49.145,50.3070334 C53.133,48.6050334 57.278,47.0990334 61.541,45.7760334 C61.155,47.9520334 60.933,50.2840334 60.933,52.7240334 C60.933,64.2310334 65.609,73.5580334 71.378,73.5580334 C77.146,73.5580334 81.823,64.2310334 81.823,52.7240334 C81.823,48.5210334 81.186,44.6280334 80.111,41.3560334 C88.754,39.8870334 97.708,39.1330334 106.789,39.1330334 C115.87,39.1330334 124.823,39.8870334 133.467,41.3560334 C132.392,44.6280334 131.755,48.5210334 131.755,52.7240334 C131.755,64.2310334 136.432,73.5580334 142.2,73.5580334 C147.969,73.5580334 152.645,64.2310334 152.645,52.7240334 C152.645,50.2840334 152.423,47.9530334 152.036,45.7760334 C156.3,47.0990334 160.445,48.6050334 164.432,50.3070334 C164.911,50.5110334 165.464,50.3140334 165.708,49.8560334 L190.116,3.87703341 L210.598,97.5100334 C211.248,100.563033 211.578,103.684033 211.578,106.790033 C211.578,144.095033 164.57,174.446033 106.789,174.446033 L106.789,174.446033 Z M191.487,0.787033413 C191.397,0.378033413 191.061,0.0670334133 190.646,0.00903341325 C190.233,-0.0469665867 189.824,0.161033413 189.627,0.532033413 L164.371,48.1100334 C147.185,40.9250334 127.299,37.1330334 106.789,37.1330334 C86.279,37.1330334 66.392,40.9250334 49.207,48.1100334 L23.951,0.532033413 C23.753,0.161033413 23.34,-0.0459665867 22.932,0.00903341325 C22.516,0.0670334133 22.18,0.378033413 22.09,0.787033413 L1.023,97.0940334 C0.344,100.284033 0,103.546033 0,106.790033 C0,145.198033 47.905,176.446033 106.789,176.446033 C165.673,176.446033 213.578,145.198033 213.578,106.790033 C213.578,103.545033 213.233,100.283033 212.553,97.0890334 L191.487,0.787033413 Z" id="Fill-7"></path>
            <path d="M121.6791,144.093533 C120.2631,144.697533 118.7071,145.031533 117.0741,145.031533 C113.4461,145.031533 110.1951,143.383533 108.0321,140.795533 C109.4561,138.626533 110.2851,136.032533 110.2851,133.249533 C110.2851,132.697533 109.8381,132.249533 109.2851,132.249533 L104.2921,132.249533 C103.7401,132.249533 103.2921,132.697533 103.2921,133.249533 C103.2921,136.032533 104.1221,138.626533 105.5461,140.795533 C103.3831,143.383533 100.1321,145.031533 96.5041,145.031533 C94.8701,145.031533 93.3141,144.697533 91.8981,144.093533 C87.6841,142.296533 84.7221,138.113533 84.7221,133.249533 L82.7221,133.249533 C82.7221,139.401533 86.7741,144.621533 92.3481,146.388533 C94.0921,152.735533 99.8881,157.404533 106.7891,157.404533 C113.6891,157.404533 119.4851,152.735533 121.2291,146.388533 C121.8021,146.206533 122.3551,145.980533 122.8931,145.728533 C122.4211,154.213533 115.3901,160.977533 106.7891,160.977533 L106.7891,162.977533 C116.7971,162.977533 124.9391,154.834533 124.9391,144.826533 L124.5221,144.826533 C128.3261,142.371533 130.8561,138.105533 130.8561,133.249533 L128.8561,133.249533 C128.8561,138.113533 125.8931,142.296533 121.6791,144.093533" id="Fill-10"></path>
        </g>
    </g>
</svg>