<?xml version="1.0" encoding="UTF-8"?>
<svg width="260px" height="234px" viewBox="0 0 260 234" version="1.1" xmlns="http://www.w3.org/2000/svg" xmlns:xlink="http://www.w3.org/1999/xlink">
    <title>Group 2 Copy</title>
    <g id="Page-1" stroke="none" stroke-width="1" fill="none" fill-rule="evenodd">
        <g id="Custom-Preset" transform="translate(-644.000000, -175.000000)" fill="#FFFFFF">
            <g id="Group-4" transform="translate(629.000000, 150.149555)">
                <g id="Group-2-Copy" transform="translate(145.000000, 141.850445) rotate(17.000000) translate(-145.000000, -141.850445) translate(37.000000, 52.850445)">
                    <path d="M99.1635159,67.3843119 L101.007852,73.3387589 L91.3505556,73.3387589 L99.1635159,67.3843119 Z M105.004075,60.0531788 L100.234608,63.6866939 L97.2881337,54.1750447 L105.004075,60.0531788 Z M113.576696,63.6124159 L108.845067,60.007391 L116.500856,54.1750447 L113.576696,63.6124159 Z M112.901442,73.3387589 L114.723463,67.4585898 L122.438434,73.3387589 L112.901442,73.3387589 Z M106.89498,85.181515 L103.910668,75.5498001 L109.878322,75.5498001 L106.89498,85.181515 Z M100.761423,65.801072 L106.758183,61.2314511 C106.883338,61.2507837 107.007522,61.2487487 107.129767,61.2161885 L113.012044,65.6972864 C113.020775,65.8295622 113.056673,65.9547155 113.111974,66.0727462 L110.821349,73.4669647 C110.791273,73.4822273 110.759257,73.4954549 110.731121,73.5147875 L103.103468,73.5147875 L100.7459,65.9048577 C100.754632,65.87128 100.755602,65.8366848 100.761423,65.801072 L100.761423,65.801072 Z M88.3652732,75.3737716 L101.815052,75.3737716 L105.972327,88.788575 C106.101362,89.2077876 106.474887,89.4926893 106.89498,89.4926893 C107.315073,89.4926893 107.687627,89.2077876 107.817633,88.788575 L111.958415,75.4205768 C111.988491,75.4053142 112.020507,75.3920867 112.048643,75.3737716 L125.423716,75.3737716 C125.84381,75.3737716 126.217334,75.0888698 126.34734,74.6696572 C126.476375,74.2514621 126.334727,73.7915492 125.99419,73.5331026 L115.288115,65.3737194 C115.279384,65.2424611 115.243486,65.1162903 115.188186,64.9982595 L119.269785,51.8246051 C119.398821,51.40641 119.257173,50.9464972 118.916635,50.6880506 C118.577068,50.4275689 118.116227,50.4275689 117.776659,50.6880506 L107.090959,58.8291187 C106.966774,58.8097861 106.84259,58.8128386 106.720345,58.8453988 L96.0133008,50.6880506 C95.6727632,50.4275689 95.212892,50.4275689 94.8723544,50.6880506 C94.532787,50.9464972 94.3901687,51.4053925 94.5201745,51.8246051 L98.6531946,65.1661481 C98.6434927,65.2007433 98.6425225,65.236356 98.6376715,65.2699337 L87.7948,73.5331026 C87.4542625,73.7915492 87.3126144,74.2514621 87.44165,74.6696572 C87.5716558,75.0888698 87.9451799,75.3737716 88.3652732,75.3737716 L88.3652732,75.3737716 Z" id="Fill-1"></path>
                    <path d="M98.7206819,149.989085 C102.878159,149.989085 106.619277,148.17776 109.190724,145.303995 C111.76217,148.17776 115.503289,149.989085 119.660766,149.989085 C127.396483,149.989085 133.690724,143.7149 133.690724,136.003832 L131.654741,136.003832 C131.654741,142.596648 126.274656,147.959589 119.660766,147.959589 C115.967493,147.959589 112.658003,146.287285 110.456087,143.661118 C111.905707,141.460131 112.75064,138.827875 112.75064,136.003832 C112.75064,135.443692 112.29458,134.989085 111.732648,134.989085 L106.649817,134.989085 C106.086868,134.989085 105.631826,135.443692 105.631826,136.003832 C105.631826,138.827875 106.475741,141.460131 107.92536,143.661118 C105.723445,146.287285 102.413955,147.959589 98.7206819,147.959589 C92.1067915,147.959589 86.7267067,142.596648 86.7267067,136.003832 L84.6907238,136.003832 C84.6907238,143.7149 90.9849649,149.989085 98.7206819,149.989085" id="Fill-3"></path>
                    <path d="M3.01278222,98.3747076 L23.7280619,3.91103195 L48.4128515,50.2964898 C48.6586072,50.7595272 49.2199009,50.9582601 49.7033215,50.7514568 C53.7355346,49.0344857 57.9275394,47.5142299 62.2398936,46.1795925 C61.848505,48.3757418 61.6239875,50.7272457 61.6239875,53.1897172 C61.6239875,64.7969263 66.3530139,74.2059684 72.187435,74.2059684 C78.0208448,74.2059684 82.7508826,64.7969263 82.7508826,53.1897172 C82.7508826,48.948738 82.1066589,45.0204857 81.0194683,41.7207133 C89.7614923,40.2387917 98.8160204,39.4781594 108,39.4781594 C117.18398,39.4781594 126.238508,40.2387917 134.980532,41.7207133 C133.893341,45.0204857 133.249117,48.948738 133.249117,53.1897172 C133.249117,64.7969263 137.979155,74.2059684 143.812565,74.2059684 C149.646986,74.2059684 154.376013,64.7969263 154.376013,53.1897172 C154.376013,50.7272457 154.151495,48.3757418 153.760106,46.1795925 C158.072461,47.5142299 162.264465,49.0344857 166.29769,50.7514568 C166.782122,50.9582601 167.340381,50.7595272 167.587148,50.2964898 L192.271938,3.91103195 L212.987218,98.3686548 C213.644589,101.449518 213.97732,104.59898 213.97732,107.729275 C213.97732,145.364434 166.436243,175.982408 108,175.982408 C49.5637566,175.982408 2.02268024,145.364434 2.02268024,107.729275 C2.02268024,104.597971 2.35642248,101.449518 3.01278222,98.3747076 M108,178 C167.551752,178 216,146.477137 216,107.729275 C216,104.457749 215.652099,101.168064 214.964388,97.9429428 L193.659497,0.794860505 C193.568476,0.381254065 193.228666,0.0685272453 192.807948,0.0110258622 C192.391276,-0.0525282981 191.976627,0.163354088 191.777393,0.537617476 L166.234987,48.5351316 C148.855107,41.2869309 128.742586,37.460567 108,37.460567 C87.2574142,37.460567 67.1448932,41.2869309 49.7650133,48.5351316 L24.2226072,0.537617476 C24.0223619,0.163354088 23.6087237,-0.0505107057 23.1920516,0.0110258622 C22.7713341,0.0685272453 22.4315238,0.381254065 22.3405032,0.794860505 L1.03561228,97.9489956 C0.347901001,101.167055 0,104.45674 0,107.729275 C0,146.477137 48.4482484,178 108,178" id="Fill-9"></path>
                    <path d="M162.051753,120.39612 C161.71851,120.444597 161.38727,120.464958 161.055028,120.499861 C164.302388,113.685892 166.442943,102.204529 166.442943,89.1486223 C166.442943,88.1955586 166.415924,87.2638249 166.391906,86.3301522 C173.415009,88.1238122 179.386348,92.9657249 182.341495,99.777755 C181.238694,110.351623 172.933659,118.808973 162.051753,120.39612 L162.051753,120.39612 Z M136.39411,106.467622 C136.43514,106.070108 136.494182,105.677442 136.555227,105.285746 C136.588251,105.074385 136.610267,104.861085 136.648294,104.652632 C136.742363,104.143621 136.86245,103.645274 136.989542,103.148866 C137.022566,103.019917 137.046584,102.887089 137.081609,102.760078 C137.241726,102.18029 137.425859,101.612136 137.629007,101.051738 C137.643017,101.011017 137.654025,100.969327 137.669036,100.928606 C140.091796,94.3628406 145.465701,89.1864346 152.322683,86.8740675 C152.306672,87.6283742 152.287658,88.3807419 152.287658,89.1486223 C152.287658,102.296635 154.458235,113.845867 157.743622,120.641415 C148.484895,120.383516 140.089795,114.960845 136.39411,106.467622 L136.39411,106.467622 Z M134.368638,106.530643 C134.358631,106.678983 134.380647,106.827324 134.438689,106.964999 C138.482627,116.546053 148.01055,122.597959 158.435125,122.597959 C159.728064,122.597959 161.037015,122.505852 162.349969,122.314851 C174.237607,120.580334 183.290184,111.275601 184.361963,99.6856481 C184.376974,99.5305207 184.352957,99.3753934 184.291912,99.2319006 C179.74661,88.4612142 168.26827,82.1485003 156.380632,83.8830181 C144.492994,85.6165663 135.440417,94.9222687 134.367637,106.512221 C134.367637,106.517069 134.368638,106.520947 134.368638,106.526765 C134.368638,106.527734 134.367637,106.528704 134.367637,106.530643 L134.368638,106.530643 Z" id="Fill-5"></path>
                    <path d="M51.7640889,85.6778169 C51.7400725,86.6194182 51.713054,87.5590801 51.713054,88.5210456 C51.713054,101.57837 53.852519,113.061833 57.0997425,119.878019 C56.767515,119.842139 56.4362882,119.821775 56.10306,119.773288 C45.2126027,118.184882 36.8999105,109.71047 35.8101643,99.1210911 C38.7661885,92.3097546 44.7422806,87.4708353 51.7640889,85.6778169 M60.4120106,120.017659 C63.6972603,113.220868 65.8677465,101.669524 65.8677465,88.5210456 C65.8677465,87.7559339 65.8477328,87.0063378 65.8327225,86.2548023 C74.5637011,89.2483381 80.8099783,96.8984853 81.6595601,106.050734 C77.9169973,114.422355 69.5922969,119.759712 60.4120106,120.017659 M55.8058565,121.692371 C57.1187556,121.883406 58.4256505,121.9765 59.7205372,121.9765 C70.1246615,121.9765 79.6361746,115.941912 83.6919518,106.390137 L83.7099641,106.389167 C83.7099641,106.37947 83.7069621,106.368803 83.7069621,106.359106 C83.7099641,106.352318 83.7129662,106.34553 83.7159682,106.340681 C83.7760094,106.196192 83.8000258,106.041037 83.7860162,105.886851 C82.7132816,94.2947782 73.6620838,84.9873739 61.7749439,83.2535086 C61.240578,83.174961 60.7092142,83.1322932 60.1778503,83.0867162 C60.0797831,83.0779887 59.9807153,83.0644126 59.8826482,83.0566548 C59.4203316,83.0217448 58.9620177,83.0091383 58.5037039,82.9984714 C58.1734778,82.9897439 57.842251,82.9742283 57.5130255,82.9767794 C57.2848693,82.9800467 57.0577138,82.9955622 56.8295575,83.0042897 C56.2761786,83.0236842 55.724801,83.0508365 55.1774262,83.1032015 C55.1714221,83.1041712 55.1664187,83.105141 55.1614152,83.1061107 C45.965118,83.995347 37.7655032,89.5906504 33.9498905,98.1416706 L34.0619672,98.1872476 C33.998924,98.3288272 33.9238726,98.462649 33.8638315,98.6051983 C33.8037904,98.7487174 33.779774,98.9048428 33.7937836,99.0590288 C34.8665181,110.651101 43.9187167,119.958506 55.8058565,121.692371" id="Fill-7"></path>
                </g>
            </g>
        </g>
    </g>
</svg>