<?xml version="1.0" encoding="UTF-8"?>
<svg width="34px" height="34px" viewBox="0 0 34 34" version="1.1" xmlns="http://www.w3.org/2000/svg" xmlns:xlink="http://www.w3.org/1999/xlink">
    <title>Fill 1</title>
    <g id="Page-1" stroke="none" stroke-width="1" fill="none" fill-rule="evenodd">
        <path d="M31.2310627,15.2311799 C30.3337044,15.2311799 29.5943036,15.9000388 29.479468,16.7657588 L17.565624,16.7657588 L23.7184696,10.6129131 C24.4119362,11.1439693 25.407725,11.0938166 26.0421332,10.4594084 C26.7330218,9.76851981 26.7330218,8.64852098 26.0421332,7.95786675 C25.351479,7.26721253 24.2314802,7.26721253 23.5405916,7.95786675 C22.9061834,8.59227496 22.8562651,9.58806383 23.3870869,10.2815304 L17.2342412,16.434376 L17.2342412,4.52053199 C18.1001955,4.40569637 18.7688201,3.66606124 18.7688201,2.76893726 C18.7688201,1.79189706 17.9766887,1 16.9998828,1 C16.0228426,1 15.2311799,1.79189706 15.2311799,2.76893726 C15.2311799,3.66606124 15.8998045,4.40569637 16.7655244,4.52053199 L16.7655244,16.434376 L10.6126788,10.2815304 C11.1437349,9.58806383 11.0938166,8.59227496 10.459174,7.95786675 C9.76851981,7.26721253 8.64852098,7.26721253 7.95763239,7.95786675 C7.26697817,8.64852098 7.26697817,9.76851981 7.95763239,10.4594084 C8.5920406,11.0938166 9.58759512,11.1439693 10.281296,10.6129131 L16.4341416,16.7657588 L4.52029764,16.7657588 C4.40546202,15.9000388 3.66606124,15.2311799 2.76893726,15.2311799 C1.79189706,15.2311799 1,16.023077 1,17.0001172 C1,17.976923 1.79189706,18.7688201 2.76893726,18.7688201 C3.66606124,18.7688201 4.40546202,18.1001955 4.52029764,17.2344756 L16.4341416,17.2344756 L10.281296,23.3873212 C9.58782947,22.8562651 8.5920406,22.9061834 7.95763239,23.5405916 C7.26697817,24.2314802 7.26697817,25.351479 7.95763239,26.0423676 C8.64852098,26.7330218 9.76851981,26.7330218 10.459174,26.0423676 C11.0935822,25.407725 11.1437349,24.4121705 10.6126788,23.718704 L16.7655244,17.5658584 L16.7655244,29.4797024 C15.8998045,29.594538 15.2311799,30.3337044 15.2311799,31.2310627 C15.2311799,32.2078686 16.0228426,33 16.9998828,33 C17.9766887,33 18.7688201,32.2078686 18.7688201,31.2310627 C18.7688201,30.3337044 18.1001955,29.594538 17.2342412,29.4797024 L17.2342412,17.5658584 L23.3870869,23.718704 C22.8562651,24.4121705 22.9061834,25.407725 23.5405916,26.0423676 C24.2314802,26.7330218 25.351479,26.7330218 26.0421332,26.0423676 C26.7330218,25.351479 26.7330218,24.2314802 26.0421332,23.5405916 C25.407725,22.9061834 24.4119362,22.8562651 23.7184696,23.3873212 L17.565624,17.2344756 L29.479468,17.2344756 C29.594538,18.1001955 30.3337044,18.7688201 31.2310627,18.7688201 C32.2078686,18.7688201 33,17.976923 33,17.0001172 C33,16.023077 32.2078686,15.2311799 31.2310627,15.2311799" id="Fill-1" stroke="#FFFFFF"></path>
    </g>
</svg>