<?xml version="1.0" encoding="UTF-8"?>
<svg width="36px" height="36px" viewBox="0 0 36 36" version="1.1" xmlns="http://www.w3.org/2000/svg" xmlns:xlink="http://www.w3.org/1999/xlink">
    <title>Fill 1</title>
    <g id="Page-1" stroke="none" stroke-width="1" fill="none" fill-rule="evenodd">
        <path d="M32.2310627,16.2311799 C31.3337044,16.2311799 30.5943036,16.9000388 30.479468,17.7657588 L18.565624,17.7657588 L24.7184696,11.6129131 C25.4119362,12.1439693 26.407725,12.0938166 27.0421332,11.4594084 C27.7330218,10.7685198 27.7330218,9.64852098 27.0421332,8.95786675 C26.351479,8.26721253 25.2314802,8.26721253 24.5405916,8.95786675 C23.9061834,9.59227496 23.8562651,10.5880638 24.3870869,11.2815304 L18.2342412,17.434376 L18.2342412,5.52053199 C19.1001955,5.40569637 19.7688201,4.66606124 19.7688201,3.76893726 C19.7688201,2.79189706 18.9766887,2 17.9998828,2 C17.0228426,2 16.2311799,2.79189706 16.2311799,3.76893726 C16.2311799,4.66606124 16.8998045,5.40569637 17.7655244,5.52053199 L17.7655244,17.434376 L11.6126788,11.2815304 C12.1437349,10.5880638 12.0938166,9.59227496 11.459174,8.95786675 C10.7685198,8.26721253 9.64852098,8.26721253 8.95763239,8.95786675 C8.26697817,9.64852098 8.26697817,10.7685198 8.95763239,11.4594084 C9.5920406,12.0938166 10.5875951,12.1439693 11.281296,11.6129131 L17.4341416,17.7657588 L5.52029764,17.7657588 C5.40546202,16.9000388 4.66606124,16.2311799 3.76893726,16.2311799 C2.79189706,16.2311799 2,17.023077 2,18.0001172 C2,18.976923 2.79189706,19.7688201 3.76893726,19.7688201 C4.66606124,19.7688201 5.40546202,19.1001955 5.52029764,18.2344756 L17.4341416,18.2344756 L11.281296,24.3873212 C10.5878295,23.8562651 9.5920406,23.9061834 8.95763239,24.5405916 C8.26697817,25.2314802 8.26697817,26.351479 8.95763239,27.0423676 C9.64852098,27.7330218 10.7685198,27.7330218 11.459174,27.0423676 C12.0935822,26.407725 12.1437349,25.4121705 11.6126788,24.718704 L17.7655244,18.5658584 L17.7655244,30.4797024 C16.8998045,30.594538 16.2311799,31.3337044 16.2311799,32.2310627 C16.2311799,33.2078686 17.0228426,34 17.9998828,34 C18.9766887,34 19.7688201,33.2078686 19.7688201,32.2310627 C19.7688201,31.3337044 19.1001955,30.594538 18.2342412,30.4797024 L18.2342412,18.5658584 L24.3870869,24.718704 C23.8562651,25.4121705 23.9061834,26.407725 24.5405916,27.0423676 C25.2314802,27.7330218 26.351479,27.7330218 27.0421332,27.0423676 C27.7330218,26.351479 27.7330218,25.2314802 27.0421332,24.5405916 C26.407725,23.9061834 25.4119362,23.8562651 24.7184696,24.3873212 L18.565624,18.2344756 L30.479468,18.2344756 C30.594538,19.1001955 31.3337044,19.7688201 32.2310627,19.7688201 C33.2078686,19.7688201 34,18.976923 34,18.0001172 C34,17.023077 33.2078686,16.2311799 32.2310627,16.2311799" id="Fill-1" stroke="#FFFFFF" stroke-width="3" fill="#FFFFFF"></path>
    </g>
</svg>